<?xml version="1.0" encoding="utf-8"?>
<!-- Generator: Adobe Illustrator 19.2.0, SVG Export Plug-In . SVG Version: 6.00 Build 0)  -->
<svg version="1.1" id="Layer_1" xmlns="http://www.w3.org/2000/svg" xmlns:xlink="http://www.w3.org/1999/xlink" x="0px" y="0px"
	 viewBox="0 0 900 900" style="enable-background:new 0 0 900 900;" xml:space="preserve">
<style type="text/css">
	.st0{stroke:#FFFFFF;stroke-miterlimit:10;}
</style>
<g>
	<path class="st0" d="M374.5,587.9c37,0,67.4-27.4,67.7-64.4l0,0l-0.5-230.8l-58.9-0.6l-0.1,230.7c0,3.5-2.9,6.3-6.3,6.3l-48.9,0"/>
	<path class="st0" d="M327.5,529.2c-2,0-6-2.8-6-6.3v-29.4h-58v31l0,0c0.6,36,29,63.4,64,63.4v-0.1l46.8,0.1"/>
	<polygon class="st0" points="660.7,283 594.3,244.5 527.6,205.8 450.8,161.5 163.5,327.3 163.5,648.5 203.3,648.5 439.5,648.5 
		439.5,609.5 202.5,609.5 202.5,349.9 450.8,206.7 508.1,239.6 575.1,278.4 641.2,316.9 697.5,349.9 697.5,609.5 556.5,609.5 
		556.5,648.5 718.2,648.5 736.5,648.5 736.5,327.3 	"/>
	<path class="st0" d="M498,763.5l21.5-24.1l0.2-11.8l19.8-19.7l-19.6-19.7l0-11l8.6-8.7l-8.9-7.9l0,0h16v-36h-16v-1.7l17.2-17.1
		L519.6,589l0-3.5h13.9v-29h-13.9l0-16h52.7c34.7,0,62.5-27,64.3-61l0,0v-68l0,0c-2-35-29.7-63-64.3-63H458.5v59l0,0l2.7,332.4
		l21.4,22.9l-0.1-0.3v0.9H498 M486.5,740.5h-10v-198h10V740.5z M519.3,407.5h52.9c3.5,0,6.3,2.7,6.3,6.2v61.5c0,3.5-2.8,6.4-6.3,6.4
		h-52.8L519.3,407.5z"/>
</g>
</svg>
