<?xml version="1.0" encoding="utf-8"?>
<!-- Generator: Adobe Illustrator 19.2.0, SVG Export Plug-In . SVG Version: 6.00 Build 0)  -->
<svg version="1.1" id="Layer_1" xmlns="http://www.w3.org/2000/svg" xmlns:xlink="http://www.w3.org/1999/xlink" x="0px" y="0px"
	 viewBox="0 0 900 900" style="enable-background:new 0 0 900 900;" xml:space="preserve">
<style type="text/css">
	.st0{fill:#FFFFFF;stroke:#FFFFFF;stroke-miterlimit:10;}
	.st1{fill:none;stroke:#FFFFFF;stroke-width:23;stroke-miterlimit:10;}
</style>
<g>
	<rect x="585.3" y="387.6" class="st0" width="45" height="68.7"/>
</g>
<g>
	<rect x="469.7" y="331.8" class="st0" width="104.8" height="45"/>
</g>
<g>
	<rect x="490.2" y="469.4" class="st0" width="82.1" height="45"/>
</g>
<g>
	<polygon class="st0" points="515.4,713.5 514.8,352 469.8,353.1 470.4,715.5 470.6,715.5 482.9,731.4 503.5,730.5 503.5,730.2 
		515,713.5 	"/>
	<polygon class="st0" points="483.6,730.4 483.5,730.4 483.5,730.4 	"/>
	<polygon class="st0" points="483.3,730.4 483.5,730.4 483.3,730.4 	"/>
</g>
<rect x="480.5" y="515.5" class="st0" width="4" height="196"/>
<g>
	<polygon class="st0" points="522.1,651.7 511.2,640.5 523.5,640.5 523.5,609.5 512,609.5 532.5,588.9 512.9,569.2 492.1,590.1 
		511.4,609.5 494.5,609.5 494.5,640.5 509.8,640.5 489.7,660.8 498.9,670.1 489.2,679.9 510.7,701.4 531.4,680.6 512.4,661.5 	"/>
	<rect x="490.5" y="537.5" class="st0" width="35" height="29"/>
</g>
<g>
	<path class="st1" d="M489.9,450.1"/>
</g>
<g>
	<path class="st0" d="M630.4,390h-45c0-7.2-5.9-13.1-13.1-13.1v-45C604.3,331.8,630.4,357.9,630.4,390z"/>
</g>
<path class="st0" d="M431,530.9l0.9-232.4h-45l-0.6,232.4c0,7.2-5.7,12.4-13.7,12.4v0.1l-45-0.1v0.6v-0.6c-6,0-12-5.9-12-13.1v-30.7
	h-45v30.7c0,32.1,26,58.1,57,58.1v-0.1l47,0.1v-0.1C405.5,587,431,562.1,431,530.9z"/>
<g>
	<path class="st0" d="M572.2,514.4v-45c7.2,0,13.1-5.9,13.1-13.1h45C630.4,488.3,604.3,514.4,572.2,514.4z"/>
</g>
<polygon class="st0" points="659.7,289.4 593.3,250.9 526.6,212.2 450.8,168.5 165.5,333.1 165.5,638 165.5,638 165.5,674.5 
	421.5,674.5 421.5,638.5 200.5,638.5 200.5,353.5 450.8,209.2 509,242.7 576,281.5 642.2,320 699.5,353.5 699.5,638.5 572.5,638.5 
	572.5,674.5 734.5,674.5 734.5,652.2 734.5,637.9 734.5,333.1 "/>
</svg>
